<svg xmlns="http://www.w3.org/2000/svg" width="1200" height="630" viewBox="0 0 1200 630">
  <defs>
    <linearGradient id="bg" x1="0%" y1="0%" x2="100%" y2="100%">
      <stop offset="0%" style="stop-color:#1a1a2e"/>
      <stop offset="100%" style="stop-color:#2d2b55"/>
    </linearGradient>
    <linearGradient id="bar" x1="0%" y1="0%" x2="100%" y2="0%">
      <stop offset="0%" style="stop-color:#5b4fff"/>
      <stop offset="100%" style="stop-color:#ff6b35"/>
    </linearGradient>
  </defs>
  <rect width="1200" height="630" fill="url(#bg)"/>
  <g opacity="0.06" stroke="#ffffff" stroke-width="1">
    <line x1="0" y1="105" x2="1200" y2="105"/>
    <line x1="0" y1="210" x2="1200" y2="210"/>
    <line x1="0" y1="315" x2="1200" y2="315"/>
    <line x1="0" y1="420" x2="1200" y2="420"/>
    <line x1="0" y1="525" x2="1200" y2="525"/>
    <line x1="200" y1="0" x2="200" y2="630"/>
    <line x1="400" y1="0" x2="400" y2="630"/>
    <line x1="600" y1="0" x2="600" y2="630"/>
    <line x1="800" y1="0" x2="800" y2="630"/>
    <line x1="1000" y1="0" x2="1000" y2="630"/>
  </g>
  <circle cx="980" cy="140" r="200" fill="#5b4fff" opacity="0.12"/>
  <circle cx="220" cy="500" r="140" fill="#ff6b35" opacity="0.10"/>
  <rect x="80" y="200" width="80" height="6" rx="3" fill="url(#bar)"/>
  <text x="80" y="290" font-family="Georgia, serif" font-size="72" font-weight="700" fill="#ffffff" letter-spacing="-1">Exchange</text>
  <text x="80" y="375" font-family="Georgia, serif" font-size="72" font-weight="700" fill="#5b4fff" letter-spacing="-1">Compass</text>
  <text x="80" y="435" font-family="-apple-system, Helvetica, Arial, sans-serif" font-size="26" fill="#a0a0cc" letter-spacing="0.2">Compare university exchanges worldwide</text>
  <rect x="80" y="480" width="200" height="52" rx="26" fill="#5b4fff" opacity="0.25"/>
  <text x="180" y="512" font-family="-apple-system, Helvetica, Arial, sans-serif" font-size="17" font-weight="600" fill="#ffffff" text-anchor="middle">548 Universities</text>
  <rect x="296" y="480" width="170" height="52" rx="26" fill="#5b4fff" opacity="0.25"/>
  <text x="381" y="512" font-family="-apple-system, Helvetica, Arial, sans-serif" font-size="17" font-weight="600" fill="#ffffff" text-anchor="middle">79 Countries</text>
  <rect x="482" y="480" width="200" height="52" rx="26" fill="#5b4fff" opacity="0.25"/>
  <text x="582" y="512" font-family="-apple-system, Helvetica, Arial, sans-serif" font-size="17" font-weight="600" fill="#ffffff" text-anchor="middle">Free to use</text>
  <g transform="translate(900, 315)" opacity="0.9">
    <circle cx="0" cy="0" r="130" fill="none" stroke="#5b4fff" stroke-width="2.5" opacity="0.6"/>
    <ellipse cx="0" cy="0" rx="65" ry="130" fill="none" stroke="#5b4fff" stroke-width="1.5" opacity="0.4"/>
    <ellipse cx="0" cy="0" rx="115" ry="50" fill="none" stroke="#5b4fff" stroke-width="1.5" opacity="0.4"/>
    <ellipse cx="0" cy="0" rx="115" ry="50" fill="none" stroke="#5b4fff" stroke-width="1.5" opacity="0.4" transform="rotate(60)"/>
    <ellipse cx="0" cy="0" rx="115" ry="50" fill="none" stroke="#5b4fff" stroke-width="1.5" opacity="0.4" transform="rotate(-60)"/>
    <polygon points="0,-40 6,0 0,8 -6,0" fill="#ff6b35" opacity="0.9"/>
    <polygon points="0,40 6,0 0,8 -6,0" fill="#ffffff" opacity="0.4"/>
    <circle cx="40" cy="-60" r="6" fill="#ff6b35" opacity="0.9"/>
    <circle cx="-70" cy="20" r="5" fill="#5b4fff" opacity="0.9"/>
    <circle cx="90" cy="30" r="5" fill="#00b37d" opacity="0.9"/>
    <circle cx="-20" cy="80" r="6" fill="#ffb800" opacity="0.9"/>
    <circle cx="60" cy="-10" r="4" fill="#ffffff" opacity="0.7"/>
    <circle cx="-50" cy="-50" r="4" fill="#5b4fff" opacity="0.8"/>
    <line x1="40" y1="-60" x2="-70" y2="20" stroke="#5b4fff" stroke-width="1" opacity="0.3"/>
    <line x1="40" y1="-60" x2="90" y2="30" stroke="#ff6b35" stroke-width="1" opacity="0.3"/>
    <line x1="-70" y1="20" x2="-20" y2="80" stroke="#5b4fff" stroke-width="1" opacity="0.3"/>
    <line x1="90" y1="30" x2="-20" y2="80" stroke="#00b37d" stroke-width="1" opacity="0.3"/>
  </g>
  <text x="80" y="590" font-family="-apple-system, Helvetica, Arial, sans-serif" font-size="20" fill="#5b4fff" opacity="0.8">exchangecompass.com</text>
</svg>
